<?xml version="1.0" encoding="utf-8"?>
<!-- Generator: Adobe Illustrator 24.3.0, SVG Export Plug-In . SVG Version: 6.00 Build 0)  -->
<svg version="1.1" xmlns="http://www.w3.org/2000/svg" xmlns:xlink="http://www.w3.org/1999/xlink" x="0px" y="0px"
	 viewBox="0 0 1200 300" style="enable-background:new 0 0 1200 300;" xml:space="preserve">
<style type="text/css">
	.st0{fill:#234175;stroke:#231F20;stroke-miterlimit:10;}
	.st1{opacity:0.82;fill:#FFFFFF;}
	.st2{opacity:0.89;fill:#FFFFFF;}
	.st3{opacity:0.49;fill:#FFFFFF;}
</style>
<g id="Layer_1">
	<rect class="st0" width="1200" height="300"/>
</g>
<g id="Layer_2">
	<path class="st1" d="M0,143c0,0,376-93.8,664.8-45s535.3,15.5,535.3,15.5V0L0-4.5V143z"/>
</g>
<g id="Layer_3">
	<path class="st2" d="M0,116.8c0,0,196-48.8,358.5-21.3s285,60,511.3,33.8S1200,91.8,1200,91.8V0L0-4.5V116.8z"/>
</g>
<g id="Layer_4">
	<path class="st3" d="M0,95.5c0,0,329.8,55.3,474.8,54.5s275.2-67.6,425-54.5s300.3,43.4,300.3,43.4V0L0-4.5V95.5z"/>
</g>
</svg>
